# xmcd
#
# Track frame offsets:
#	150
#	16051
#	25512
#	38465
#	50477
#	62237
#	75571
#	88686
#	105517
#	116449
#	137207
#	151260
#	166167
#	182540
#	195264
#	210907
#	225322
#	238597
#	253176
#	263096
#
# Disc length: 3688 seconds
#
# Revision: 0
# Processed by: cddbd v1.5.2PL0 Copyright (c) Steve Scherf et al.
# Submitted via: dBpowerAMP V4.0
#
DISCID=e70e6614
DTITLE=Charley Pride - 20 Classics
DYEAR=2004
DGENRE=Country
TTITLE0=It's Just A Matter Of Time
TTITLE1=Billy Bayou
TTITLE2=Distant Drums
TTITLE3=Lovesick Blues
TTITLE4=Ramblin' Rose
TTITLE5=You've Got To Stand For Something
TTITLE6=I'll Be Leavin' Alone
TTITLE7=The Hunger
TTITLE8=Walk On By
TTITLE9=You're So Good When You're Bad
TTITLE10=Sea Of Heartbreack
TTITLE11=I Love You Because
TTITLE12=The Blizzard
TTITLE13=Hope You're Feelin' Me (Like I'm Feelin' You)
TTITLE14=Hello Love
TTITLE15=But I Do
TTITLE16=Bimbo
TTITLE17=Please Help Me, I'm Falling (In Love With You)
TTITLE18=Snow Flake
TTITLE19=Danny Boy
EXTD=
EXTT0=
EXTT1=
EXTT2=
EXTT3=
EXTT4=
EXTT5=
EXTT6=
EXTT7=
EXTT8=
EXTT9=
EXTT10=
EXTT11=
EXTT12=
EXTT13=
EXTT14=
EXTT15=
EXTT16=
EXTT17=
EXTT18=
EXTT19=
PLAYORDER=
